<svg width="32" height="26" fill="none" xmlns="http://www.w3.org/2000/svg"><path d="M31.16 1.268a2.75 2.75 0 00-2.017-.84H2.857c-.785 0-1.458.28-2.018.84A2.75 2.75 0 000 3.286v19.429c0 .786.28 1.458.84 2.017.559.56 1.231.84 2.017.84h26.286a2.75 2.75 0 002.018-.84c.56-.56.839-1.232.839-2.017V3.285a2.75 2.75 0 00-.84-2.017zm-1.446 21.446a.548.548 0 01-.17.402.548.548 0 01-.401.17H2.857a.548.548 0 01-.402-.17.549.549 0 01-.17-.402V9c.382.429.792.822 1.233 1.179 3.19 2.452 5.726 4.464 7.607 6.035.607.512 1.101.91 1.482 1.197.381.286.896.574 1.545.866.649.292 1.259.437 1.83.437h.036c.571 0 1.181-.145 1.83-.437.65-.292 1.164-.58 1.545-.866.38-.286.875-.685 1.482-1.197 1.881-1.571 4.417-3.583 7.607-6.035.44-.357.852-.75 1.232-1.179v13.714zm0-18.964v.196c0 .703-.276 1.486-.83 2.349-.554.863-1.152 1.55-1.794 2.062-2.298 1.81-4.685 3.697-7.162 5.66l-.625.527c-.345.292-.619.516-.821.67-.203.155-.467.343-.795.563-.327.22-.628.384-.901.49-.274.108-.53.161-.768.161h-.036c-.238 0-.494-.053-.768-.16a4.768 4.768 0 01-.901-.491c-.328-.22-.593-.408-.795-.563a22.645 22.645 0 01-.821-.67l-.625-.526c-2.476-1.965-4.863-3.851-7.161-5.661-1.75-1.38-2.625-3.071-2.625-5.071 0-.155.056-.289.17-.402a.55.55 0 01.401-.17h26.286c.095.054.179.069.25.045.072-.024.125.02.16.134.036.113.07.166.099.16.03-.006.048.069.053.224l.01.232v.241z" fill="#fff"/></svg>