<svg width="33" height="32" fill="none" xmlns="http://www.w3.org/2000/svg"><path d="M32.43 24.794c-.09-.273-.666-.674-1.726-1.204a52.325 52.325 0 00-1.227-.682c-.53-.288-1.012-.553-1.443-.796a48.247 48.247 0 01-1.216-.704c-.06-.045-.25-.178-.568-.398a6.398 6.398 0 00-.808-.489 1.488 1.488 0 00-.647-.159c-.303 0-.682.217-1.136.648-.454.432-.871.901-1.25 1.41a13.7 13.7 0 01-1.204 1.408c-.424.433-.773.648-1.045.648-.137 0-.308-.038-.512-.113a5.29 5.29 0 01-.466-.193 8.457 8.457 0 01-.545-.319c-.259-.159-.402-.246-.432-.261-2.076-1.152-3.856-2.47-5.341-3.954-1.485-1.486-2.803-3.266-3.954-5.342-.016-.03-.103-.174-.262-.431a8.219 8.219 0 01-.318-.546 4.934 4.934 0 01-.193-.466 1.537 1.537 0 01-.114-.511c0-.273.216-.621.648-1.046.432-.424.902-.825 1.409-1.204.508-.378.977-.795 1.409-1.25.432-.454.648-.833.648-1.136 0-.212-.053-.428-.16-.647a6.313 6.313 0 00-.488-.807 29.77 29.77 0 00-.398-.569 49.971 49.971 0 01-.704-1.215c-.243-.432-.508-.913-.796-1.444-.288-.53-.515-.939-.682-1.227C8.38.735 7.978.16 7.705.068 7.6.023 7.44 0 7.228 0c-.41 0-.943.076-1.602.227-.66.152-1.178.31-1.557.478-.758.318-1.56 1.242-2.41 2.772C.888 4.9.502 6.31.502 7.704c0 .409.026.806.08 1.193.052.386.147.822.284 1.307.136.485.246.845.329 1.08.083.234.238.654.466 1.26.227.607.363.978.409 1.114.53 1.485 1.159 2.81 1.886 3.977 1.196 1.94 2.829 3.944 4.897 6.012 2.068 2.068 4.072 3.7 6.011 4.898 1.167.727 2.493 1.355 3.978 1.886.136.045.507.181 1.113.41.606.226 1.027.382 1.261.465.235.084.595.194 1.08.33.485.137.92.231 1.307.285.386.052.784.08 1.193.08 1.393 0 2.803-.387 4.227-1.16 1.53-.848 2.454-1.651 2.772-2.41.167-.378.326-.897.477-1.556.152-.66.228-1.193.228-1.602 0-.213-.023-.372-.068-.479z" fill="#fff"/></svg>