<svg width="64" height="64" fill="none" xmlns="http://www.w3.org/2000/svg"><path d="M63.981 0H.02A.019.019 0 000 .019V63.98c0 .01.008.019.019.019H63.98c.01 0 .019-.008.019-.019V.02A.019.019 0 0063.981 0z" fill="#5281B8"/><path d="M34.25 45.375C34.875 45.25 36 45 36 43.5c0 0-.125-3.75 1.625-4.25s4 3.625 6.375 5.25c1.75 1.125 3.125 1 3.125 1l6.375-.125s3.25-.25 1.75-2.875c-.125-.25-1.125-1.875-4.875-5.25-3.875-3.75-3.25-3.125 1.375-9.5 2.875-3.875 4.125-6.25 3.75-7.125-.5-.875-2.5-.75-2.5-.75h-7.125c-.75 0-1.125.125-1.5.75 0 0-1.125 3.125-2.625 5.625-3.125 5.375-4.375 5.625-5 5.25-1.125-.625-.875-3-.875-4.625 0-5.625.875-7.625-1.625-8.125-1.625-.25-7.375-.5-9.125.375-.875.5-1.375 1.375-1 1.5.375 0 1.5.125 2.125.875 1 1.625 1.125 9.375-.25 10.125-1.875 1.375-6.625-7.75-7.75-10.75-.25-.75-.625-.875-1.5-1.125H9.875c-.75 0-1.875.125-1.375 1.625 3.375 7 10.375 24.125 23 24h2.75z" fill="#fff"/></svg>