<?xml version="1.0" standalone="no"?>
<!DOCTYPE svg PUBLIC "-//W3C//DTD SVG 20010904//EN"
 "http://www.w3.org/TR/2001/REC-SVG-20010904/DTD/svg10.dtd">
<svg version="1.0" xmlns="http://www.w3.org/2000/svg"
 width="512.000000pt" height="512.000000pt" viewBox="0 0 512.000000 512.000000"
 preserveAspectRatio="xMidYMid meet">
<metadata>
Created by potrace 1.14, written by Peter Selinger 2001-2017
</metadata>
<g transform="translate(0.000000,512.000000) scale(0.100000,-0.100000)"
fill="#000000" stroke="none">
<path d="M2340 5109 c-781 -67 -1485 -489 -1923 -1154 -91 -139 -208 -372
-265 -530 -150 -415 -188 -888 -107 -1328 128 -692 525 -1288 1120 -1680 139
-91 372 -208 530 -265 475 -172 1021 -196 1512 -67 609 160 1135 537 1490
1067 143 215 280 524 344 778 109 437 100 911 -25 1346 -167 579 -543 1086
-1061 1427 -134 88 -368 206 -520 262 -334 123 -732 175 -1095 144z m1468
-2326 l2 -693 -960 0 -960 0 0 335 0 336 -25 24 c-23 24 -30 25 -150 25 l-125
0 0 335 0 335 1108 -2 1107 -3 3 -692z m-1968 -618 l0 -455 -300 0 -300 0 0
455 0 455 300 0 300 0 0 -455z m1100 -208 c0 -9 71 -354 76 -369 5 -15 18 -18
90 -18 83 0 84 0 84 -25 l0 -25 -496 0 -495 0 3 23 c3 21 8 22 89 25 l86 3 37
182 c21 100 39 188 41 195 3 9 61 12 245 12 132 0 240 -1 240 -3z"/>
</g>
</svg>
